<?xml version="1.0" encoding="utf-8"?>
<!-- Generator: Adobe Illustrator 23.0.6, SVG Export Plug-In . SVG Version: 6.00 Build 0)  -->
<svg version="1.1" id="graphic-design" xmlns="http://www.w3.org/2000/svg" xmlns:xlink="http://www.w3.org/1999/xlink" x="0px"
	 y="0px" viewBox="0 0 172 170" style="enable-background:new 0 0 172 170;" xml:space="preserve">
<style type="text/css">
	.st0{fill:#186999;}
	.st1{fill:#FFFFFF;}
</style>
<circle id="background_7_" class="st0" cx="86.09" cy="83.64" r="83"/>
<g id="graphic-design-desktop">
	<path class="st1" d="M95.76,43.64c0,0-17,0-32,0s-24,0-28,0s-7,3-7,9s0,49,0,55s2,10,9,10s87,0,95,0s11-5,11-12s0-45,0-51
		s-3-11-8-11h-6.5l-4,6.5c0,0,3,0,6,0s5,0,5,2s0,50,0,50h-101v-50c0,0,0-2,3-2s54,0,54,0L95.76,43.64z"/>
	<path class="st1" d="M126.76,27.64c-3.54-3.54-9-3-15,6s-15,22-18,26s-4,9,0,12s8-1,12-6s15-19,20-26
		C130.76,32.64,129.76,30.64,126.76,27.64z"/>
	<path class="st1" d="M90.76,74.64c-4.53-3.39-10-2-12,2s1,6-1,8s-5,3-5,3s10,7,17,2S94.76,77.64,90.76,74.64z"/>
	<polygon class="st1" points="75.76,116.64 95.76,116.64 95.76,130.64 109.76,130.64 109.76,140.64 61.76,140.64 61.76,130.64 
		75.67,130.64 	"/>
</g>
</svg>
