<?xml version="1.0" encoding="utf-8"?>
<!-- Generator: Adobe Illustrator 23.0.6, SVG Export Plug-In . SVG Version: 6.00 Build 0)  -->
<svg version="1.1" id="motion-design" xmlns="http://www.w3.org/2000/svg" xmlns:xlink="http://www.w3.org/1999/xlink" x="0px"
	 y="0px" viewBox="0 0 172 170" style="enable-background:new 0 0 172 170;" xml:space="preserve">
<style type="text/css">
	.st0{fill:#186999;}
	.st1{fill:#FFFFFF;}
</style>
<circle id="background_6_" class="st0" cx="86.16" cy="85.35" r="83"/>
<g id="motion-animation">
	<path class="st1" d="M124.13,128.04H46.19c-3.3,0-6-2.7-6-6V50.91c0-3.3,2.7-6,6-6h77.93c3.3,0,6,2.7,6,6v71.13
		C130.13,125.34,127.43,128.04,124.13,128.04z"/>
	<path class="st0" d="M70.1,86.35c0-8.56,0-19.14,0-21.67c0-2.54,1.37-4.02,3.91-2.85c2.54,1.16,19.56,10.89,23.89,13.32
		s8.56,4.86,10.57,6.13s3.38,2.85,0,5.07s-11.21,7.4-17.02,11.31s-12.69,8.46-15.22,10.26c-2.54,1.8-6.13,4.02-6.13-2.54
		S70.1,93.75,70.1,86.35z"/>
</g>
</svg>
