<?xml version="1.0" encoding="utf-8"?>
<!-- Generator: Adobe Illustrator 23.0.6, SVG Export Plug-In . SVG Version: 6.00 Build 0)  -->
<svg version="1.1" id="web-development" xmlns="http://www.w3.org/2000/svg" xmlns:xlink="http://www.w3.org/1999/xlink" x="0px"
	 y="0px" viewBox="0 0 172 170" style="enable-background:new 0 0 172 170;" xml:space="preserve">
<style type="text/css">
	.st0{fill:#186999;}
	.st1{fill:#FFFFFF;}
</style>
<circle id="background_5_" class="st0" cx="86.16" cy="85.35" r="83"/>
<g id="webdev-brackets">
	<polygon class="st1" points="95.83,45.35 133.52,45.35 133.52,51.96 34.24,51.96 35.83,45.35 	"/>
	<g>
		<path class="st1" d="M95.83,45.35c0,0-17,0-32,0s-24,0-28,0s-7,3-7,9s0,49,0,55s2,10,9,10s87,0,95,0s11-5,11-12s0-45,0-51
			s-3-11-8-11h-6.5l-4,6.5c0,0,3,0,6,0s5,0,5,2s0,50,0,50h-101v-50c0,0,0-2,3-2s54,0,54,0L95.83,45.35z"/>
		<polygon class="st1" points="75.83,119.35 95.83,119.35 95.83,132.35 109.83,132.35 109.83,142.35 61.83,142.35 61.83,132.35 
			75.75,132.35 		"/>
		<g>
			<path class="st1" d="M76.29,69.6c-1.22-2.95-3.17-2.22-6.34-0.95s-10.63,4.76-13.16,5.87s-4.44,5.87-0.95,7.93
				c3.49,2.06,12.37,6.03,15.22,7.14s4.28,0.48,5.23-1.43s-0.16-3.49-2.85-4.76c-2.7-1.27-9.99-4.55-9.99-4.55l10.94-5.29
				C74.38,73.56,77.4,72.3,76.29,69.6z"/>
			<path class="st1" d="M94.38,69.6c1.22-2.95,3.17-2.22,6.34-0.95c3.17,1.27,10.63,4.76,13.16,5.87s4.44,5.87,0.95,7.93
				c-3.49,2.06-12.37,6.03-15.22,7.14s-4.28,0.48-5.23-1.43s0.16-3.49,2.85-4.76c2.7-1.27,9.99-4.55,9.99-4.55l-10.94-5.29
				C96.29,73.56,93.27,72.3,94.38,69.6z"/>
			<path class="st1" d="M89.13,63.89c-2.59-0.63-3.81,0.32-4.76,3.65c-0.95,3.33-4.28,21.09-4.28,21.09s-1.59,4.44,2.38,5.07
				c3.96,0.63,4.12-4.12,4.76-7.45c0.63-3.33,3.33-16.33,3.81-18.71C91.51,65.16,90.62,64.26,89.13,63.89z"/>
		</g>
	</g>
</g>
</svg>
