<?xml version="1.0" encoding="utf-8"?>
<!-- Generator: Adobe Illustrator 23.0.6, SVG Export Plug-In . SVG Version: 6.00 Build 0)  -->
<svg version="1.1" id="marketing-advertising" xmlns="http://www.w3.org/2000/svg" xmlns:xlink="http://www.w3.org/1999/xlink"
	 x="0px" y="0px" viewBox="0 0 172 170" style="enable-background:new 0 0 172 170;" xml:space="preserve">
<style type="text/css">
	.st0{fill:#186999;}
	.st1{fill:#FFFFFF;}
</style>
<circle id="background_4_" class="st0" cx="86.16" cy="85.35" r="83"/>
<g id="marketing-profit">
	<path class="st1" d="M126.38,132.6h-13.76c-1.1,0-2-0.9-2-2V68.41c0-1.1,0.9-2,2-2h13.76c1.1,0,2,0.9,2,2v62.18
		C128.38,131.7,127.48,132.6,126.38,132.6z"/>
	<path class="st1" d="M102.69,132.6H88.16c-1.1,0-2-0.9-2-2V90.03c0-1.1,0.9-2,2-2h14.53c1.1,0,2,0.9,2,2v40.57
		C104.69,131.7,103.79,132.6,102.69,132.6z"/>
	<path class="st1" d="M78.38,132.6H64.61c-1.1,0-2-0.9-2-2v-26.24c0-1.1,0.9-2,2-2h13.76c1.1,0,2,0.9,2,2v26.24
		C80.38,131.7,79.48,132.6,78.38,132.6z"/>
	<path class="st1" d="M54.48,132.6H40.3c-1.1,0-2-0.9-2-2v-19.26c0-1.1,0.9-2,2-2h14.18c1.1,0,2,0.9,2,2v19.26
		C56.48,131.7,55.58,132.6,54.48,132.6z"/>
	<path class="st1" d="M38.41,104.53c0.51,1.61,1,2.22,4.49,1.59c3.49-0.63,12.21-2.38,26.17-9.67c13.96-7.3,22.04-14.11,31.56-22.2
		s18.87-19.51,18.87-19.51s2.54,2.22,4.12,3.17c1.59,0.95,1.59-0.79,2.06-1.74c0.48-0.95,1.9-9.67,2.7-12.21
		c0.79-2.54,0.79-3.81-2.85-2.85c-3.65,0.95-13.32,3.81-13.32,3.81s-0.95,0.79,0.32,2.06s3.01,3.49,3.01,3.49s-6.5,7.45-12.69,13
		C96.66,69,87.46,78.2,73.66,86.77s-33.53,14.09-34.35,14.59C37.66,102.36,38.41,104.53,38.41,104.53z"/>
	<path class="st1" d="M100.05,37.36c-0.88-1.32-8.72-1.74-19.03,2.22S61.2,54.33,61.2,54.33s-4.2-0.48-5.47-0.56
		s-2.54-0.32-3.65,0.56s-6.03,5.15-7.69,6.5s-1.67,1.9-1.35,2.62c0.32,0.71,1.03,1.51,1.51,1.9c0.48,0.4,0.87,0.63,2.06,0
		s4.84-2.46,6.19-2.62s1.03,0.71,0.71,1.03c-0.32,0.32-1.03,0.86-0.24,1.98c0.79,1.12,6.11,7.93,6.66,8.73
		c0.56,0.79,1.03,1.11,1.82,0.63s1.35-0.32,1.03,0.63s-4.04,5-4.6,5.87c-0.56,0.87-0.4,1.43,0.4,2.38s1.11,1.82,2.3,1.11
		s7.77-5.15,9.2-6.03c1.43-0.87,1.82-2.38,2.22-5s0.56-3.81,0.56-3.81s16.89-7.61,22.68-19.19S100.53,38.07,100.05,37.36z"/>
	<circle class="st0" cx="81.5" cy="51.07" r="3.96"/>
	<path class="st1" d="M54.03,72.12c-1.32-2.09-5.27-3.76-8.93-1.69c-3.67,2.07-3.76,5.08-4.42,7.43s-0.85,5.45-0.85,5.45
		s3.38-0.47,4.98-1.41s2.16-2.54,3.85-2.16s0.85,2.67,0.85,2.67s3.01-0.51,4.89-3.9C56.29,75.13,55.16,73.91,54.03,72.12z"/>
</g>
</svg>
