<?xml version="1.0" encoding="utf-8"?>
<!-- Generator: Adobe Illustrator 23.0.6, SVG Export Plug-In . SVG Version: 6.00 Build 0)  -->
<svg version="1.1" id="social-media-marketing" xmlns="http://www.w3.org/2000/svg" xmlns:xlink="http://www.w3.org/1999/xlink"
	 x="0px" y="0px" viewBox="0 0 172 170" style="enable-background:new 0 0 172 170;" xml:space="preserve">
<style type="text/css">
	.st0{fill:#186999;}
	.st1{fill:#FFFFFF;}
</style>
<circle id="background_3_" class="st0" cx="86.7" cy="86.12" r="83"/>
<g id="social-media-like">
	<path class="st1" d="M121.43,119.69H50.66c-8.8,0-16-7.2-16-16V63.38c0-8.8,7.2-16,16-16h70.77c8.8,0,16,7.2,16,16v40.32
		C137.43,112.49,130.23,119.69,121.43,119.69z"/>
	<path class="st1" d="M70.5,116.2c0,0,22.52,23.15,25.37,26.01c2.85,2.85,6.66,7.61,6.98,2.85c0.32-4.76,0-28.86,0-28.86H70.5z"/>
	<path class="st0" d="M88.5,106.76c0,0-18.17-16.84-21.84-20.77c-3.67-3.93-4.04-16.53,5.95-18.3c11.41-2.01,15.89,9.18,15.89,9.18
		s5.67-12.29,15.39-8.83c9.5,3.38,9.88,13.21,3.8,19.31C101.61,93.47,88.5,106.76,88.5,106.76z"/>
</g>
</svg>
