<?xml version="1.0" encoding="utf-8"?>
<!-- Generator: Adobe Illustrator 23.0.6, SVG Export Plug-In . SVG Version: 6.00 Build 0)  -->
<svg version="1.1" id="ui-ux-design" xmlns="http://www.w3.org/2000/svg" xmlns:xlink="http://www.w3.org/1999/xlink" x="0px"
	 y="0px" viewBox="0 0 172 170" style="enable-background:new 0 0 172 170;" xml:space="preserve">
<style type="text/css">
	.st0{fill:#186999;}
	.st1{fill:#FFFFFF;}
</style>
<circle id="background_2_" class="st0" cx="86" cy="85" r="83"/>
<g id="ui-ux-flow">
	<path class="st1" d="M63.21,103.58H26.32c-4.4,0-8-3.6-8-8V78.72c0-4.4,3.6-8,8-8h36.89c4.4,0,8,3.6,8,8v16.86
		C71.21,99.98,67.61,103.58,63.21,103.58z"/>
	<rect x="70.6" y="85.3" class="st1" width="24.59" height="3.26"/>
	<path class="st1" d="M91.05,62.74c0,0-3.26,0-4.57,0s-4.26,0.36-4.26,2.83c0,2.47,0,38.23,0,41.06s1.07,4.86,4.63,4.86
		s4.21,0,4.21,0v4.5c0,0-2.1,0-5.37,0s-6.89-2.03-6.89-7.83s0-38.23,0-42.73s2.97-7.04,6.53-7.04s6.89,0,6.89,0L91.05,62.74z"/>
	<path class="st1" d="M143.32,68.63h-50.3c-1.73,0-3.14-1.41-3.14-3.14v-9.2c0-1.73,1.41-3.14,3.14-3.14h50.3
		c1.73,0,3.14,1.41,3.14,3.14v9.2C146.46,67.22,145.05,68.63,143.32,68.63z"/>
	<path class="st1" d="M143.32,95.07h-50.3c-1.73,0-3.14-1.41-3.14-3.14V81.37c0-1.73,1.41-3.14,3.14-3.14h50.3
		c1.73,0,3.14,1.41,3.14,3.14v10.56C146.46,93.66,145.05,95.07,143.32,95.07z"/>
	<path class="st1" d="M143.32,121.51h-50.3c-1.73,0-3.14-1.41-3.14-3.14v-9.68c0-1.73,1.41-3.14,3.14-3.14h50.3
		c1.73,0,3.14,1.41,3.14,3.14v9.68C146.46,120.1,145.05,121.51,143.32,121.51z"/>
</g>
</svg>
