<?xml version="1.0" encoding="utf-8"?>
<!-- Generator: Adobe Illustrator 23.0.6, SVG Export Plug-In . SVG Version: 6.00 Build 0)  -->
<svg version="1.1" id="graphic-design" xmlns="http://www.w3.org/2000/svg" xmlns:xlink="http://www.w3.org/1999/xlink" x="0px"
	 y="0px" viewBox="0 0 172 170" style="enable-background:new 0 0 172 170;" xml:space="preserve">
<style type="text/css">
	.st0{fill:#FAB02A;}
	.st1{fill:#FFFFFF;}
</style>
<circle id="background_9_" class="st0" cx="86" cy="85" r="83"/>
<g id="award">
	<polygon class="st1" points="124.9,73.6 108.9,80.4 102.5,96.5 86.4,90.1 70.5,96.9 63.6,81 47.5,74.6 54,58.5 47.1,42.5 
		63.1,35.7 69.5,19.6 85.6,26 101.5,19.2 108.4,35.1 124.5,41.6 118,57.7 	"/>
	<polygon class="st1" points="62,91.4 68,107.3 86,98.8 104.7,106.3 111.9,91.4 114,93.6 114,147.5 109.7,147.5 86.8,124.6 
		63.6,147.8 59.6,147.8 59.6,93.6 	"/>
	<circle class="st0" cx="86" cy="58.1" r="25.4"/>
	<circle class="st1" cx="86" cy="58.1" r="17.9"/>
</g>
</svg>
