<?xml version="1.0" encoding="utf-8"?>
<!-- Generator: Adobe Illustrator 23.0.6, SVG Export Plug-In . SVG Version: 6.00 Build 0)  -->
<svg version="1.1" id="graphic-design" xmlns="http://www.w3.org/2000/svg" xmlns:xlink="http://www.w3.org/1999/xlink" x="0px"
	 y="0px" viewBox="0 0 172 170" style="enable-background:new 0 0 172 170;" xml:space="preserve">
<style type="text/css">
	.st0{fill:#FAB02A;}
	.st1{fill:#FFFFFF;}
</style>
<circle id="background_8_" class="st0" cx="86" cy="85" r="83"/>
<g id="gears">
	<g>
		<circle class="st1" cx="64.5" cy="66.1" r="31.7"/>
		<circle class="st0" cx="64.6" cy="65.2" r="14.4"/>
		<path class="st1" d="M67.4,47.5h-5.8c-1.1,0-2-0.9-2-2V28.2c0-1.1,0.9-2,2-2h5.8c1.1,0,2,0.9,2,2v17.4
			C69.4,46.6,68.5,47.5,67.4,47.5z"/>
		<path class="st1" d="M79.2,54.8l-4-4.1c-0.8-0.8-0.8-2.1,0-2.8l12.4-12.2c0.8-0.8,2.1-0.8,2.8,0l4,4.1c0.8,0.8,0.8,2.1,0,2.8
			L82,54.8C81.2,55.6,79.9,55.6,79.2,54.8z"/>
		<path class="st1" d="M82.3,68.1l0-5.8c0-1.1,0.9-2,2-2l17.4,0.1c1.1,0,2,0.9,2,2l0,5.8c0,1.1-0.9,2-2,2l-17.4-0.1
			C83.2,70.1,82.3,69.2,82.3,68.1z"/>
		<path class="st1" d="M75.1,79.8l4.1-4c0.8-0.8,2.1-0.8,2.8,0l12.2,12.4c0.8,0.8,0.8,2.1,0,2.8l-4.1,4c-0.8,0.8-2.1,0.8-2.8,0
			L75,82.6C74.3,81.8,74.3,80.5,75.1,79.8z"/>
		<path class="st1" d="M61.7,82.9l5.8,0c1.1,0,2,0.9,2,2l-0.1,17.4c0,1.1-0.9,2-2,2l-5.8,0c-1.1,0-2-0.9-2-2l0.1-17.4
			C59.7,83.8,60.6,82.9,61.7,82.9z"/>
		<path class="st1" d="M50.1,75.6l4,4.1c0.8,0.8,0.8,2.1,0,2.8L41.7,94.8c-0.8,0.8-2.1,0.8-2.8,0l-4-4.1c-0.8-0.8-0.8-2.1,0-2.8
			l12.4-12.2C48,74.9,49.3,74.9,50.1,75.6z"/>
		<path class="st1" d="M47,62.3l0,5.8c0,1.1-0.9,2-2,2l-17.4-0.1c-1.1,0-2-0.9-2-2l0-5.8c0-1.1,0.9-2,2-2L45,60.3
			C46.1,60.3,47,61.2,47,62.3z"/>
		<path class="st1" d="M54.2,50.7l-4.1,4c-0.8,0.8-2.1,0.8-2.8,0L35.1,42.3c-0.8-0.8-0.8-2.1,0-2.8l4.1-4c0.8-0.8,2.1-0.8,2.8,0
			l12.2,12.4C55,48.6,55,49.9,54.2,50.7z"/>
	</g>
	<g>
		<circle class="st1" cx="114.2" cy="115.1" r="22.2"/>
		<circle class="st0" cx="114" cy="114.5" r="10.1"/>
		<path class="st1" d="M110.3,102.7l-2.6,1.1c-1,0.4-2.2,0-2.6-1l-4.4-10c-0.4-1,0-2.2,1-2.6l2.6-1.1c1-0.4,2.2,0,2.6,1l4.4,10
			C111.7,101,111.3,102.2,110.3,102.7z"/>
		<path class="st1" d="M119.8,103.5l-2.6-1c-1-0.4-1.5-1.6-1.1-2.6l4.1-10.1c0.4-1,1.6-1.5,2.6-1.1l2.6,1c1,0.4,1.5,1.6,1.1,2.6
			l-4.1,10.1C122,103.4,120.8,103.9,119.8,103.5z"/>
		<path class="st1" d="M125.9,110.9l-1.1-2.6c-0.4-1,0-2.2,1.1-2.6l10-4.3c1-0.4,2.2,0,2.6,1.1l1.1,2.6c0.4,1,0,2.2-1.1,2.6l-10,4.3
			C127.5,112.4,126.3,111.9,125.9,110.9z"/>
		<path class="st1" d="M125,120.3l1-2.6c0.4-1,1.6-1.5,2.6-1.1l10.1,4.1c1,0.4,1.5,1.6,1.1,2.6l-1,2.6c-0.4,1-1.6,1.5-2.6,1.1
			l-10.1-4.1C125.1,122.5,124.6,121.4,125,120.3z"/>
		<path class="st1" d="M117.6,126.4l2.6-1.1c1-0.4,2.2,0,2.6,1.1l4.3,10c0.4,1,0,2.2-1.1,2.6l-2.6,1.1c-1,0.4-2.2,0-2.6-1.1l-4.3-10
			C116.1,128,116.6,126.8,117.6,126.4z"/>
		<path class="st1" d="M108.2,125.5l2.6,1c1,0.4,1.5,1.6,1.1,2.6l-4.1,10.1c-0.4,1-1.6,1.5-2.6,1.1l-2.6-1c-1-0.4-1.5-1.6-1.1-2.6
			l4.1-10.1C106,125.6,107.1,125.1,108.2,125.5z"/>
		<path class="st1" d="M102.1,118.1l1.1,2.6c0.4,1,0,2.2-1.1,2.6l-10,4.3c-1,0.4-2.2,0-2.6-1.1l-1.1-2.6c-0.4-1,0-2.2,1.1-2.6
			l10-4.3C100.5,116.7,101.7,117.1,102.1,118.1z"/>
		<path class="st1" d="M103,108.7l-1,2.6c-0.4,1-1.6,1.5-2.6,1.1l-10.1-4.1c-1-0.4-1.5-1.6-1.1-2.6l1-2.6c0.4-1,1.6-1.5,2.6-1.1
			l10.1,4.1C102.9,106.5,103.4,107.7,103,108.7z"/>
	</g>
</g>
</svg>
