<?xml version="1.0" encoding="utf-8"?>
<!-- Generator: Adobe Illustrator 23.0.6, SVG Export Plug-In . SVG Version: 6.00 Build 0)  -->
<svg version="1.1" id="graphic-design" xmlns="http://www.w3.org/2000/svg" xmlns:xlink="http://www.w3.org/1999/xlink" x="0px"
	 y="0px" viewBox="0 0 172 170" style="enable-background:new 0 0 172 170;" xml:space="preserve">
<style type="text/css">
	.st0{fill:#FAB02A;}
	.st1{fill:#FFFFFF;}
</style>
<circle id="background_9_" class="st0" cx="86" cy="85" r="83"/>
<g id="lightbulb">
	<path class="st1" d="M86.1,24.6C70.5,24,53.2,36,51.1,53.3s7.5,25.8,12.2,36.6s6.8,14.7,7.2,16.9s6.6,2.5,15.7,2.5s15.9-0.4,17-2.2
		s2.2-10.8,6.5-17.9c4.3-7.2,15.4-19,10.4-39.8C115,28.5,97.1,24.9,86.1,24.6z"/>
	<path class="st1" d="M103.9,123.3H68.4c-2.3,0-4.1-1.9-4.1-4.1v-1.1c0-2.3,1.9-4.1,4.1-4.1h35.5c2.3,0,4.1,1.9,4.1,4.1v1.1
		C108,121.5,106.2,123.3,103.9,123.3z"/>
	<path class="st1" d="M103.9,137.7H68.4c-2.3,0-4.1-1.9-4.1-4.1v-1.1c0-2.3,1.9-4.1,4.1-4.1h35.5c2.3,0,4.1,1.9,4.1,4.1v1.1
		C108,135.8,106.2,137.7,103.9,137.7z"/>
	<path class="st1" d="M86,142H71.2c0,0,0.9,2.6,2.3,4.4c1.4,1.8,3.1,2.2,3.1,2.2h20.4c0,0,1.4-1.1,3.1-3.3c1.6-2.2,1.8-3.3,1.8-3.3
		H86z"/>
	<path class="st0" d="M87.1,109.2c0,0-7.3-19.6-8.2-30.5c-1-10.9,5.2-15.7,9.6-14.2c4.4,1.5,5.3,10.6,5,15.2
		C93.2,84.3,87.1,109.2,87.1,109.2z"/>
</g>
</svg>
