<?xml version="1.0" encoding="utf-8"?>
<!-- Generator: Adobe Illustrator 23.0.6, SVG Export Plug-In . SVG Version: 6.00 Build 0)  -->
<svg version="1.1" id="address-icon" xmlns="http://www.w3.org/2000/svg" xmlns:xlink="http://www.w3.org/1999/xlink" x="0px"
	 y="0px" viewBox="0 0 46.94 46.94" style="enable-background:new 0 0 46.94 46.94;" xml:space="preserve">
<style type="text/css">
	.st0{fill:#FFFFFF;}
	.st1{fill:#FCD95A;}
</style>
<circle id="background" class="st0" cx="23.83" cy="23.35" r="17.62"/>
<g id="gps">
	<path class="st1" d="M21.68,2.38h2.87c3.16,0,6.79,1.29,10.89,3.88c2.38,1.89,4.21,3.81,5.5,5.76c2.17,3.95,3.26,7.25,3.26,9.88
		v3.24c-0.15,2.78-1.15,5.91-2.99,9.39c-2.67,4.28-6.75,7.36-12.26,9.25c-1.29,0.34-3.08,0.64-5.39,0.88
		c-0.15-0.08-0.27-0.12-0.37-0.12l-0.25,0.12c-3.95-0.36-6.79-1.03-8.51-2.01C9.43,40.3,5.88,36.68,3.78,31.78
		c-1.16-2.56-1.74-5.31-1.74-8.26C2.03,15.78,5.62,9.61,12.8,5C16.36,3.25,19.32,2.38,21.68,2.38z M15.18,20.89v1
		c0,2.8,2.08,6.51,6.25,11.14c1.19,0.94,2.02,1.44,2.5,1.5c2.05-0.55,4.51-3.26,7.38-8.14c0.92-2.09,1.37-3.8,1.37-5.13
		c0-2.62-1.21-5-3.63-7.14c-1.65-1.16-3.24-1.74-4.76-1.74h-1c-1.59,0.16-3.25,0.83-5,2.01C16.22,16.65,15.18,18.82,15.18,20.89z
		 M24.06,15.89c2.32,0,3.99,1.37,5,4.12c0.08,0.57,0.12,1.03,0.12,1.37c0,2-1.13,3.58-3.38,4.76c-0.53,0.16-0.91,0.25-1.13,0.25
		H23.3c-1.6,0-3.06-1.08-4.37-3.24l-0.39-1.89c0.34-1.83,0.68-2.75,1-2.75c0.48,1,1.07,1.5,1.76,1.5h0.49
		c1.24-0.31,1.87-0.94,1.87-1.87v-0.39c0-0.36-0.29-0.9-0.86-1.62C22.95,16.04,23.36,15.96,24.06,15.89z"/>
</g>
</svg>
