<?xml version="1.0" encoding="utf-8"?>
<!-- Generator: Adobe Illustrator 23.0.6, SVG Export Plug-In . SVG Version: 6.00 Build 0)  -->
<svg version="1.1" id="behance-icon" xmlns="http://www.w3.org/2000/svg" xmlns:xlink="http://www.w3.org/1999/xlink" x="0px"
	 y="0px" viewBox="0 0 40.9 40.5" style="enable-background:new 0 0 40.9 40.5;" xml:space="preserve">
<style type="text/css">
	.st0{fill:#FCD95A;}
</style>
<g id="behance">
	<path class="st0" d="M20.5-1C28-1,34.1,2.5,38.7,9.6c1.9,3.6,2.9,7.2,2.9,10.7c0,5.9-2.4,11.2-7.2,15.8c-4.3,3.5-8.8,5.3-13.5,5.3
		h-1.3c-6.2,0-11.7-2.8-16.3-8.4c-2.8-3.9-4.2-8.2-4.2-13c0-7.1,3.3-13,9.8-17.7C12.5,0.1,16.4-1,20.5-1z M9.2,12.7v15h7.5
		c2.8,0,4.5-1.3,4.9-4v-0.3c0-1.8-0.8-3-2.4-3.9c1.1-0.9,1.6-1.6,1.6-2.4v-1.5c0-1.1-0.9-2-2.6-2.6c-0.9-0.2-1.5-0.2-1.8-0.2
		L9.2,12.7L9.2,12.7z M12.7,15.2h2.5c1.7,0,2.5,0.5,2.5,1.5v0.6c0,0.8-0.5,1.2-1.6,1.4h-3.4c-0.2,0-0.2-0.1-0.2-0.2v-3
		C12.5,15.3,12.6,15.2,12.7,15.2z M12.7,21h2.9c1.9,0,2.8,0.6,2.8,1.8v1c-0.4,0.9-1.1,1.4-2.1,1.4h-3.5c-0.2,0-0.2-0.1-0.2-0.2v-3.6
		C12.5,21.1,12.6,21,12.7,21z M22,22c0,2.4,1.1,4.2,3.3,5.3c0.9,0.3,1.6,0.4,2,0.4h0.9c1.6,0,2.9-0.8,3.9-2.3l0.6-1.2h-2.8
		c0,0.4-0.6,0.9-1.8,1.4h-0.4c-1.6,0-2.5-0.8-2.8-2.4V23l0.2-0.1h7.4l0.2-0.1l-0.1-0.2v-0.1c0-2.9-1.1-4.8-3.4-5.7l-0.9-0.2h-1.9
		c-0.8,0-1.9,0.5-3.2,1.6C22.5,19.4,22,20.7,22,22z M24.6,13.5v1.8h5.7c0.2,0,0.3-0.1,0.3-0.2v-1.5L24.6,13.5L24.6,13.5z M27.3,18.5
		h0.2c1.5,0.2,2.3,1,2.3,2.3v0.1h-4.7v-0.5C25.1,19.5,25.9,18.8,27.3,18.5z"/>
</g>
</svg>
