<?xml version="1.0" encoding="utf-8"?>
<!-- Generator: Adobe Illustrator 23.0.6, SVG Export Plug-In . SVG Version: 6.00 Build 0)  -->
<svg version="1.1" id="email-icon" xmlns="http://www.w3.org/2000/svg" xmlns:xlink="http://www.w3.org/1999/xlink" x="0px" y="0px"
	 viewBox="0 0 46.94 46.94" style="enable-background:new 0 0 46.94 46.94;" xml:space="preserve">
<style type="text/css">
	.st0{fill:#FFFFFF;}
	.st1{fill:#FCD95A;}
</style>
<circle id="background" class="st0" cx="23.83" cy="23.35" r="17.62"/>
<g id="email">
	<path class="st1" d="M24.46,2.8c3.73,0,7.82,1.67,12.26,5c4.92,4.68,7.38,10.01,7.38,16.02c0,7-3.09,12.84-9.27,17.53
		c-3.69,2.42-7.65,3.63-11.87,3.63c-7.67,0-13.77-3.51-18.29-10.52C2.75,31.07,1.8,27.52,1.8,23.82c0-6.81,2.96-12.52,8.88-17.14
		c3.24-2.23,6.67-3.52,10.27-3.88H24.46z M11.31,17.81v13.53c0.11,0.83,0.53,1.25,1.25,1.25h20.77c0.83-0.12,1.25-0.54,1.25-1.25
		V17.95c0-0.51-0.25-0.93-0.74-1.27h-21.8C11.56,16.98,11.31,17.36,11.31,17.81z M12.69,17.95h0.12c0.79,0.53,3.29,2.58,7.51,6.13
		c0.88,0.77,1.76,1.47,2.65,2.11c3.55-2.88,6.76-5.55,9.62-8l0.14,0.25c-1.57,1.37-3.41,3.16-5.52,5.37l6.13,7.26v0.27l-7.01-6.89
		H26.2c0,0.23-1.08,1.36-3.24,3.38l-3.51-3.26c-2.3,2.41-4.63,4.7-7.01,6.89v-0.25l6.25-7.4C18.04,23.05,16.04,21.1,12.69,17.95z"/>
</g>
</svg>
