<?xml version="1.0" encoding="utf-8"?>
<!-- Generator: Adobe Illustrator 23.0.6, SVG Export Plug-In . SVG Version: 6.00 Build 0)  -->
<svg version="1.1" id="facebook-icon" xmlns="http://www.w3.org/2000/svg" xmlns:xlink="http://www.w3.org/1999/xlink" x="0px"
	 y="0px" viewBox="0 0 40.3 40.2" style="enable-background:new 0 0 40.3 40.2;" xml:space="preserve">
<style type="text/css">
	.st0{fill:#FCD95A;}
</style>
<g id="fb">
	<path class="st0" d="M19.5-1.1h1.3c5.2,0,10.1,2.2,14.8,6.6c3.3,4,5.1,7.6,5.4,10.8c0.2,1.5,0.4,2.5,0.4,2.9v1.7
		c0,2.8-1,6.1-2.9,9.8c-2.8,4.6-6.8,7.7-11.9,9.5c-2.6,0.7-4.7,1-6.1,1H20c-5.4,0-10.4-2.2-15-6.5c-3.9-4.3-5.9-9.4-5.9-15.2v-0.2
		c0-0.2,0-0.4,0.1-0.5c0-0.1,0-0.1-0.1-0.1c0.5-4.1,1.6-7.4,3.3-9.9c2.6-4.2,6.6-7.2,12-9C16.3-0.8,18-1.1,19.5-1.1z M16.6,12.4
		l0.1,3.9c0,0.1-0.1,0.2-0.4,0.4h-2.1v4.4h2.1c0.1,0,0.2,0.1,0.4,0.4v10.8l0.1,0.8h4.5V21.3c0-0.2,0.1-0.3,0.2-0.3h3.6
		c0.2,0,0.4-1.4,0.6-4.1v-0.2h-4.3c-0.2,0-0.2-0.1-0.2-0.2v-3c0-1.3,0.8-2,2.3-2.1H26V7.6c0-0.2-0.9-0.4-2.6-0.4h-0.7
		c-2.9,0-4.8,1.1-5.6,3.2C16.9,10.8,16.8,11.5,16.6,12.4z"/>
</g>
</svg>
