<?xml version="1.0" encoding="utf-8"?>
<!-- Generator: Adobe Illustrator 23.0.6, SVG Export Plug-In . SVG Version: 6.00 Build 0)  -->
<svg version="1.1" id="instagram-icon" xmlns="http://www.w3.org/2000/svg" xmlns:xlink="http://www.w3.org/1999/xlink" x="0px"
	 y="0px" viewBox="0 0 40.3 40.3" style="enable-background:new 0 0 40.3 40.3;" xml:space="preserve">
<style type="text/css">
	.st0{fill:#FCD95A;}
</style>
<g id="insta">
	<path class="st0" d="M18.6-0.9h3c3.2,0,6.9,1.3,11,4c3.1,2.4,5.3,5.2,6.8,8.4c1.3,3,1.9,5.6,1.9,7.6v1.7c0,4.7-1.9,9.3-5.8,13.9
		C31,39,25.9,41.2,20,41.2c-7.4,0-13.4-3.4-18-10.3C0,27.2-1,23.6-1,20c0-5.8,2.4-11.1,7.2-15.8C10.7,0.8,14.9-0.9,18.6-0.9z
		 M8.9,17.3v6.5c0,3.5,1.1,5.9,3.4,7.1c1,0.6,4.3,0.8,9.8,0.6c4.2,0,6.6-0.5,7.3-1.4c1.4-1.1,2.1-3,2.1-5.6v-8.3
		c0-3.3-1.2-5.5-3.5-6.5l-1.7-0.5l-1.6-0.1h-9.1c-3.2,0-5.4,1.6-6.5,4.8C8.9,14.8,8.9,16,8.9,17.3z M16,11.1h8.8
		c3.2,0,4.8,1.7,4.8,5V25c-0.4,3.1-1.7,4.6-3.9,4.6h-3.6c-1.7,0-3.5,0-5.4,0.1c-3.1,0-5-1-5.5-3c-0.2-1.1-0.2-2.8-0.2-5v-2.8
		c0-4.2,0.3-6.2,1-6.2C12.5,11.6,13.9,11.1,16,11.1z M14.4,20.5c0,2.7,1.5,4.6,4.6,5.6h2.5c3-1.1,4.5-3,4.5-5.7v-0.3
		c0-1.6-0.8-3-2.4-4.4c-1.1-0.8-2.2-1.1-3.4-1.1h-0.1c-2.6,0-4.4,1.3-5.4,4C14.6,18.8,14.5,19.4,14.4,20.5z M20.1,16.6h0.1
		c1.8,0,3,1,3.6,2.9c0.1,0.1,0.1,0.4,0.1,0.9c-0.4,2.6-1.6,3.9-3.8,3.9c-1.7,0-2.9-0.8-3.6-2.5c-0.1-0.1-0.2-0.5-0.3-1.2
		C16.7,17.9,17.9,16.6,20.1,16.6z M24.9,14.5c0.4,0.8,0.8,1.2,1.4,1.2s1-0.4,1.4-1.2c-0.2-1-0.7-1.5-1.5-1.5
		C25.3,13.2,24.9,13.7,24.9,14.5z"/>
</g>
</svg>
