<?xml version="1.0" encoding="utf-8"?>
<!-- Generator: Adobe Illustrator 23.0.6, SVG Export Plug-In . SVG Version: 6.00 Build 0)  -->
<svg version="1.1" id="phone-icon" xmlns="http://www.w3.org/2000/svg" xmlns:xlink="http://www.w3.org/1999/xlink" x="0px" y="0px"
	 viewBox="0 0 46.94 46.94" style="enable-background:new 0 0 46.94 46.94;" xml:space="preserve">
<style type="text/css">
	.st0{fill:#FFFFFF;}
	.st1{fill:#FCD95A;}
</style>
<circle id="background" class="st0" cx="23.83" cy="23.35" r="17.62"/>
<g id="phone">
	<path class="st1" d="M23.58,2.86h1.37c2.24,0,5.15,0.75,8.72,2.24c7.64,4.59,11.46,10.91,11.46,18.95
		c0,7.44-3.49,13.45-10.46,18.05c-3.72,1.91-6.96,2.87-9.72,2.87h-1.62c-2.24,0-5.07-0.7-8.47-2.11c-2.3-1.15-4.46-2.81-6.48-4.98
		c-2.35-2.84-3.84-5.58-4.47-8.22c-0.51-1.93-0.76-3.21-0.76-3.86v-1.37c0-0.19-0.04-0.36-0.12-0.51c0.08-0.14,0.12-0.3,0.12-0.49
		v-1.37c0-2.13,0.96-5.12,2.87-8.96c2.97-4.57,6.87-7.64,11.71-9.21C20.15,3.2,22.1,2.86,23.58,2.86z M15.6,19.31l0.14,0.25
		c-0.1,0.16-0.14,0.29-0.14,0.37c0.3,2.41,1.51,5.06,3.63,7.98c3.64,4.06,6.71,6.09,9.21,6.09h0.76c2.06-1.44,3.27-2.56,3.61-3.36
		c0-0.49-0.92-1.28-2.75-2.36c-0.77-0.68-1.39-1.06-1.87-1.13c-0.63,0.31-1.29,0.77-1.99,1.37c-1.16,0-2.86-1.7-5.11-5.11
		l-0.37-1.25c1.07-0.9,1.6-1.56,1.6-1.99c-1.19-3.04-1.93-4.66-2.24-4.86H19.6c-0.59,0-1.83,1.04-3.73,3.12L15.6,19.31z"/>
</g>
</svg>
