<?xml version="1.0" encoding="utf-8"?>
<!-- Generator: Adobe Illustrator 23.0.6, SVG Export Plug-In . SVG Version: 6.00 Build 0)  -->
<svg version="1.1" id="twitter-icon" xmlns="http://www.w3.org/2000/svg" xmlns:xlink="http://www.w3.org/1999/xlink" x="0px"
	 y="0px" viewBox="0 0 41.2 41" style="enable-background:new 0 0 41.2 41;" xml:space="preserve">
<style type="text/css">
	.st0{fill:#FCD95A;}
</style>
<g id="twit">
	<path class="st0" d="M20.3-0.4h0.9c4.7,0,9.2,1.8,13.6,5.4c4.7,4.7,7,9.7,7,14.8v2c0,3-1.2,6.5-3.5,10.6c-2.9,4.1-6.8,6.9-11.7,8.5
		c-2.3,0.6-4.2,0.9-5.7,0.9h-0.1c-5.7,0-10.9-2.2-15.4-6.7c-3.8-4.4-5.7-9.2-5.7-14.4c0-5.5,2.2-10.6,6.5-15.2
		C10.6,1.5,15.3-0.4,20.3-0.4z M21.6,17v1c0,0.2-0.1,0.2-0.3,0.2c-2.6-0.4-4.9-1.3-6.7-2.8l-1.7-1.6h-0.1c0,0.1-0.2,0.5-0.5,1v1.5
		c0.1,0.9,0.7,1.8,1.7,2.9v0.1c-0.6,0-1.2-0.2-1.7-0.5V19c0,1.6,1,3,3.1,4.1l-0.2,0.1h-0.6l-0.6-0.1v0.2c1,1.8,2.2,2.6,3.6,2.6v0.4
		c-1.6,1-3.3,1.5-4.9,1.5h-0.7v0.2c2.3,1.1,4.4,1.6,6.1,1.6c3.6,0,6.7-1.5,9.2-4.4c1.8-2.5,2.8-5,2.8-7.2v-0.9c1.3-1.3,2-2,2-2.1V15
		c-0.5,0.2-1.2,0.5-2,0.6l-0.1-0.3c0.8-0.5,1.4-1.1,1.7-1.9v-0.1h-0.1c-1.2,0.6-2,0.9-2.2,0.9h-0.4c-0.9-0.8-1.8-1.2-2.5-1.2h-1
		c-1.4,0-2.5,0.8-3.4,2.4C21.7,15.8,21.6,16.4,21.6,17z"/>
</g>
</svg>
