<?xml version="1.0" encoding="utf-8"?>
<!-- Generator: Adobe Illustrator 23.0.6, SVG Export Plug-In . SVG Version: 6.00 Build 0)  -->
<svg version="1.1" id="ui-video-rewind" xmlns="http://www.w3.org/2000/svg" xmlns:xlink="http://www.w3.org/1999/xlink" x="0px"
	 y="0px" viewBox="0 0 172 170" style="enable-background:new 0 0 172 170;" xml:space="preserve">
<style type="text/css">
	.st0{fill:#3E4D6C;}
	.st1{fill:#CAE9EB;}
</style>
<circle id="background_3_" class="st0" cx="86.5" cy="85.3" r="83"/>
<g id="rewind">
	<path class="st1" d="M82.1,86.8c0-17,0-27.9,0-32.6s-1.2-6.3-4.7-3.6C74,53.2,38.8,79.9,35,82.9c-3.8,3.1-3.6,4.7,0,7.4
		s39.2,29.4,42.4,32.3c3.3,2.9,4.7,2.5,4.7-4.5S82.1,99.5,82.1,86.8z"/>
	<path class="st1" d="M122.8,86.8c0-17,0-27.9,0-32.6s-1.2-6.3-4.7-3.6c-3.4,2.7-38.6,29.4-42.4,32.5c-3.8,3.1-3.6,4.7,0,7.4
		c3.6,2.7,39.2,29.4,42.4,32.3c3.3,2.9,4.7,2.5,4.7-4.5S122.8,99.5,122.8,86.8z"/>
</g>
</svg>
