<?xml version="1.0" encoding="utf-8"?>
<!-- Generator: Adobe Illustrator 23.0.6, SVG Export Plug-In . SVG Version: 6.00 Build 0)  -->
<svg version="1.1" id="ui-video-voldown" xmlns="http://www.w3.org/2000/svg" xmlns:xlink="http://www.w3.org/1999/xlink" x="0px"
	 y="0px" viewBox="0 0 172 170" style="enable-background:new 0 0 172 170;" xml:space="preserve">
<style type="text/css">
	.st0{fill:#3E4D6C;}
	.st1{fill:#CAE9EB;}
</style>
<circle id="background_6_" class="st0" cx="87" cy="85.2" r="83"/>
<g id="volume-up_1_">
	<path class="st1" d="M73.6,103.4H49.7c-2.8,0-5-2.2-5-5V74.4c0-2.8,2.2-5,5-5h23.9c2.8,0,5,2.2,5,5v23.9
		C78.6,101.1,76.4,103.4,73.6,103.4z"/>
	<path class="st1" d="M66.6,69.4c0,0,13.5-13.8,18.7-19s10.3-4.8,10.3,1.1s0,63.4,0,68.8s-4,8.1-7.5,4.8
		c-3.5-3.3-21.6-21.6-21.6-21.6L66.6,69.4z"/>
	<path class="st1" d="M105.9,72.3c-2.5,3.2,0.3,5.6,1.9,6.7s4.8,3.3,4.4,7.6c-0.3,4.3-2.1,5.7-5.4,7.8s-2.4,8.4,1.7,7.9
		s12.2-4.4,12.4-15.9S110,67.1,105.9,72.3z"/>
</g>
</svg>
