<?xml version="1.0" encoding="utf-8"?>
<!-- Generator: Adobe Illustrator 23.0.6, SVG Export Plug-In . SVG Version: 6.00 Build 0)  -->
<svg version="1.1" id="ui-video-pause" xmlns="http://www.w3.org/2000/svg" xmlns:xlink="http://www.w3.org/1999/xlink" x="0px"
	 y="0px" viewBox="0 0 172 170" style="enable-background:new 0 0 172 170;" xml:space="preserve">
<style type="text/css">
	.st0{fill:#3E4D6C;}
	.st1{fill:#CAE9EB;}
</style>
<circle id="background_2_" class="st0" cx="86.5" cy="85.3" r="83"/>
<g id="pause">
	<path class="st1" d="M70.3,123.4H56.5c-3.3,0-6-2.7-6-6V56.1c0-3.3,2.7-6,6-6h13.8c3.3,0,6,2.7,6,6v61.3
		C76.3,120.7,73.6,123.4,70.3,123.4z"/>
	<path class="st1" d="M118.5,123.4h-13.8c-3.3,0-6-2.7-6-6V56.1c0-3.3,2.7-6,6-6h13.8c3.3,0,6,2.7,6,6v61.3
		C124.5,120.7,121.8,123.4,118.5,123.4z"/>
</g>
</svg>
