<?xml version="1.0" encoding="utf-8"?>
<!-- Generator: Adobe Illustrator 23.0.6, SVG Export Plug-In . SVG Version: 6.00 Build 0)  -->
<svg version="1.1" id="ui-video-volup" xmlns="http://www.w3.org/2000/svg" xmlns:xlink="http://www.w3.org/1999/xlink" x="0px"
	 y="0px" viewBox="0 0 172 170" style="enable-background:new 0 0 172 170;" xml:space="preserve">
<style type="text/css">
	.st0{fill:#3E4D6C;}
	.st1{fill:#CAE9EB;}
</style>
<circle id="background_5_" class="st0" cx="86.5" cy="85" r="83"/>
<g id="volume-up">
	<path class="st1" d="M60.4,103.2H36.5c-2.8,0-5-2.2-5-5V74.3c0-2.8,2.2-5,5-5h23.9c2.8,0,5,2.2,5,5v23.9
		C65.4,101,63.2,103.2,60.4,103.2z"/>
	<path class="st1" d="M53.4,69.3c0,0,13.5-13.8,18.7-19c5.2-5.2,10.3-4.8,10.3,1.1s0,63.4,0,68.8s-4,8.1-7.5,4.8
		c-3.5-3.3-21.6-21.6-21.6-21.6L53.4,69.3z"/>
	<path class="st1" d="M92.7,72.1c-2.5,3.2,0.3,5.6,1.9,6.7s4.8,3.3,4.4,7.6c-0.3,4.3-2.1,5.7-5.4,7.8c-3.3,2.1-2.4,8.4,1.7,7.9
		c4.1-0.5,12.2-4.4,12.4-15.9C107.9,74.8,96.8,66.9,92.7,72.1z"/>
	<path class="st1" d="M99,56.4c-4.2,4.2,3,7.3,5.9,9.2c2.9,1.9,10.9,7.7,10.9,20.9s-7.1,18.1-10.1,20c-3,1.9-9,4.1-6.8,8.7
		c2.2,4.6,9.4,1.6,17-6s8.6-15.9,8.6-22.8s-2.5-18.4-11.1-25.2S101.7,53.7,99,56.4z"/>
	<path class="st1" d="M105.4,41.2c-2,3.6,2.4,6,6.7,8.7s13.6,9.4,17.8,20.6c4.1,11.2,4.1,26.5-2.2,36.7
		c-6.3,10.1-15.1,15.1-19.8,17.6s-3,7.6,0,8.6s13.2-4.3,21.1-13.3s12.5-20.3,12.7-36.2c0.2-15.9-9.5-28.5-17.1-35.5
		C116.8,41.4,107.8,36.9,105.4,41.2z"/>
</g>
</svg>
