<?xml version="1.0" encoding="utf-8"?>
<!-- Generator: Adobe Illustrator 23.0.6, SVG Export Plug-In . SVG Version: 6.00 Build 0)  -->
<svg version="1.1" id="ui-video-rewind" xmlns="http://www.w3.org/2000/svg" xmlns:xlink="http://www.w3.org/1999/xlink" x="0px"
	 y="0px" viewBox="0 0 172 170" style="enable-background:new 0 0 172 170;" xml:space="preserve">
<style type="text/css">
	.st0{fill:#3E4D6C;}
	.st1{fill:#CAE9EB;}
</style>
<circle id="background_4_" class="st0" cx="86.5" cy="85.3" r="83"/>
<g id="forward">
	<path class="st1" d="M90.9,86.8c0-17,0-27.9,0-32.6s1.2-6.3,4.7-3.6c3.4,2.7,38.6,29.4,42.4,32.5c3.8,3.1,3.6,4.7,0,7.4
		c-3.6,2.7-39.2,29.4-42.4,32.3c-3.3,2.9-4.7,2.5-4.7-4.5S90.9,99.5,90.9,86.8z"/>
	<path class="st1" d="M50.2,86.8c0-17,0-27.9,0-32.6s1.2-6.3,4.7-3.6c3.4,2.7,38.6,29.4,42.4,32.5c3.8,3.1,3.6,4.7,0,7.4
		c-3.6,2.7-39.2,29.4-42.4,32.3s-4.7,2.5-4.7-4.5S50.2,99.5,50.2,86.8z"/>
</g>
</svg>
