<?xml version="1.0" encoding="utf-8"?>
<!-- Generator: Adobe Illustrator 23.0.6, SVG Export Plug-In . SVG Version: 6.00 Build 0)  -->
<svg version="1.1" id="Layer_1" xmlns="http://www.w3.org/2000/svg" xmlns:xlink="http://www.w3.org/1999/xlink" x="0px" y="0px"
	 viewBox="0 0 251.21 224.56" style="enable-background:new 0 0 251.21 224.56;" xml:space="preserve">
<style type="text/css">
	.st0{fill:#231F20;}
	.st1{fill:#FCD95A;}
</style>
<g id="TWINKLE_2_">
	<g>
		<path class="st0" d="M107.61,83.53c-0.71,0-1.3-0.58-1.3-1.3s0.58-1.3,1.3-1.3s1.3,0.58,1.3,1.3S108.32,83.53,107.61,83.53z
			 M107.61,81.94c-0.16,0-0.3,0.13-0.3,0.3s0.13,0.3,0.3,0.3s0.3-0.13,0.3-0.3S107.77,81.94,107.61,81.94z"/>
	</g>
	<g>
		<path class="st0" d="M137.59,137.51c-0.71,0-1.3-0.58-1.3-1.3s0.58-1.3,1.3-1.3s1.3,0.58,1.3,1.3S138.31,137.51,137.59,137.51z
			 M137.59,135.91c-0.16,0-0.3,0.13-0.3,0.3s0.13,0.3,0.3,0.3s0.3-0.13,0.3-0.3S137.75,135.91,137.59,135.91z"/>
	</g>
	<g>
		<path class="st0" d="M73.76,105.42c-1.52,0-2.75-1.23-2.75-2.75s1.23-2.75,2.75-2.75c1.51,0,2.75,1.23,2.75,2.75
			S75.28,105.42,73.76,105.42z M73.76,100.92c-0.96,0-1.75,0.78-1.75,1.75s0.78,1.75,1.75,1.75s1.75-0.78,1.75-1.75
			S74.72,100.92,73.76,100.92z"/>
	</g>
	<g>
		<path class="st0" d="M158.19,116.31c-1.52,0-2.75-1.23-2.75-2.75c0-1.52,1.23-2.75,2.75-2.75c1.51,0,2.75,1.23,2.75,2.75
			C160.93,115.07,159.7,116.31,158.19,116.31z M158.19,111.81c-0.96,0-1.75,0.78-1.75,1.75c0,0.96,0.78,1.75,1.75,1.75
			c0.96,0,1.75-0.78,1.75-1.75C159.93,112.6,159.15,111.81,158.19,111.81z"/>
	</g>
	<g>
		<circle class="st0" cx="134.58" cy="107.75" r="0.7"/>
	</g>
	<g>
		<circle class="st0" cx="89.76" cy="101.37" r="0.7"/>
	</g>
	<g>
		<circle class="st0" cx="118.69" cy="138.55" r="0.7"/>
	</g>
</g>
<g id="sparker_1_">
	<g>
		<g>
			<path class="st0" d="M94.51,89.25h-1c0-2.37-1.97-4.3-4.39-4.3v-1C92.09,83.95,94.51,86.33,94.51,89.25z"/>
		</g>
		<g>
			<path class="st0" d="M94.51,89.25h-1c0-2.92,2.42-5.3,5.39-5.3v1C96.48,84.95,94.51,86.88,94.51,89.25z"/>
		</g>
		<g>
			<path class="st0" d="M89.12,85.05v-1c2.42,0,4.39-2,4.39-4.45h1C94.51,82.6,92.09,85.05,89.12,85.05z"/>
		</g>
		<g>
			<path class="st0" d="M98.9,85.05c-2.97,0-5.39-2.45-5.39-5.45h1c0,2.46,1.97,4.45,4.39,4.45V85.05z"/>
		</g>
	</g>
	<g>
		<g>
			<path class="st0" d="M142.47,127.56h-1c0-2.37-1.97-4.3-4.39-4.3v-1C140.05,122.26,142.47,124.64,142.47,127.56z"/>
		</g>
		<g>
			<path class="st0" d="M142.47,127.56h-1c0-2.92,2.42-5.3,5.39-5.3v1C144.44,123.26,142.47,125.19,142.47,127.56z"/>
		</g>
		<g>
			<path class="st0" d="M137.08,123.36v-1c2.42,0,4.39-2,4.39-4.45h1C142.47,120.91,140.05,123.36,137.08,123.36z"/>
		</g>
		<g>
			<path class="st0" d="M146.86,123.36c-2.97,0-5.39-2.45-5.39-5.45h1c0,2.46,1.97,4.45,4.39,4.45V123.36z"/>
		</g>
	</g>
</g>
<g id="Coins_1_">
	<g>
		<circle class="st1" cx="114.47" cy="115.81" r="13.14"/>
	</g>
	<g>
		<path class="st0" d="M110.82,131.7c-7.52,0-13.64-6.12-13.64-13.64c0-7.52,6.12-13.64,13.64-13.64s13.64,6.12,13.64,13.64
			C124.45,125.58,118.34,131.7,110.82,131.7z M110.82,105.43c-6.97,0-12.64,5.67-12.64,12.64s5.67,12.64,12.64,12.64
			s12.64-5.67,12.64-12.64S117.78,105.43,110.82,105.43z"/>
	</g>
</g>
<g id="pennydrop-kohinoor-med">
	<path class="st0" d="M45.37,151.3c0,3.39-1.9,5.66-6.2,5.66h-2.3v6.65h-2.47v-17.33h5.24C43.09,146.28,45.37,147.71,45.37,151.3z
		 M36.86,148.45v6.38h2.25c2.77,0,3.68-1.21,3.68-3.21c0-2.25-1.24-3.16-3.66-3.16H36.86z"/>
	<path class="st0" d="M53.95,163.61v-17.33h9.49v2.15h-7.02v5.31h6.13v2.15h-6.13v5.56h7.34v2.15H53.95z"/>
	<path class="st0" d="M74.96,149.32c0.07,0.77,0.12,3.71,0.12,5.02v9.27h-2.4v-17.33h3.29l5.17,9.76c0.37,0.74,1.85,3.56,2.13,4.3
		h0.15c-0.07-1.06-0.07-4.4-0.07-5.22v-8.85h2.35v17.33h-3.21l-5.29-9.96c-0.37-0.74-1.76-3.49-2.08-4.33H74.96z"/>
	<path class="st0" d="M96.91,149.32c0.07,0.77,0.12,3.71,0.12,5.02v9.27h-2.4v-17.33h3.29l5.17,9.76c0.37,0.74,1.85,3.56,2.13,4.3
		h0.15c-0.07-1.06-0.07-4.4-0.07-5.22v-8.85h2.35v17.33h-3.21l-5.29-9.96c-0.37-0.74-1.76-3.49-2.08-4.33H96.91z"/>
	<path class="st0" d="M129.34,146.28l-5.78,11.27v6.06h-2.47v-6.06l-5.78-11.27h2.82l4.2,8.73h0.1l4.23-8.73H129.34z"/>
	<path class="st0" d="M143.58,146.28h4.77c5.34,0,7.76,2.69,7.76,8.43c0,5.29-2.15,8.9-7.76,8.9h-4.77V146.28z M146.05,161.46h2.2
		c3.73,0,5.29-2,5.29-6.48c0-4.89-1.98-6.55-5.39-6.55h-2.1V161.46z"/>
	<path class="st0" d="M168.92,146.28c3.66,0,5.83,1.43,5.83,4.94c0,2.89-1.78,4.47-3.83,4.75v0.1c0.74,0.35,1.36,0.94,2.15,2.32
		l3.04,5.22h-2.99l-3.07-5.56c-0.54-0.99-1.24-1.41-2.37-1.41h-1.01v6.97h-2.47v-17.33H168.92z M166.67,154.56h2
		c2.27,0,3.53-0.94,3.53-3.12c0-2.17-1.29-3.02-3.63-3.02h-1.9V154.56z"/>
	<path class="st0" d="M189.36,163.85c-4.18,0-6.72-2.4-6.72-8.82c0-6.35,2.77-9,6.95-9c4.15,0,6.75,2.42,6.75,8.82
		C196.33,161.23,193.56,163.85,189.36,163.85z M189.54,161.68c2.6,0,4.23-1.61,4.23-6.65c0-5.09-1.68-6.82-4.35-6.82
		c-2.52,0-4.23,1.56-4.23,6.62C185.19,159.95,186.89,161.68,189.54,161.68z"/>
	<path class="st0" d="M215.91,151.3c0,3.39-1.9,5.66-6.21,5.66h-2.3v6.65h-2.47v-17.33h5.24
		C213.64,146.28,215.91,147.71,215.91,151.3z M207.41,148.45v6.38h2.25c2.77,0,3.68-1.21,3.68-3.21c0-2.25-1.24-3.16-3.66-3.16
		H207.41z"/>
</g>
<g id="studio-kohinoor-reg">
	<path class="st0" d="M104.51,176.82c0-1.91-4.01-1.48-4.01-4.13c0-1.27,1.09-2.25,2.6-2.25c0.95,0,1.69,0.31,2.17,0.71l-0.59,0.74
		c-0.42-0.34-0.94-0.58-1.64-0.58c-0.98,0-1.57,0.55-1.57,1.32c0,1.94,4.01,1.54,4.01,4.12c0,1.27-1.01,2.33-2.81,2.33
		c-1.27,0-2.15-0.46-2.63-0.89l0.56-0.77c0.47,0.38,1.14,0.79,2.15,0.79C103.9,178.22,104.51,177.6,104.51,176.82z"/>
	<path class="st0" d="M110.61,171.41h-2.24v-0.85h5.43v0.85h-2.23v7.56h-0.96V171.41z"/>
	<path class="st0" d="M122.45,176.16v-5.6h0.96v5.48c0,2.03-1.18,3.05-3.06,3.05c-1.9,0-2.91-1.09-2.91-2.9v-5.62h0.96v5.48
		c0,1.51,0.8,2.18,2.06,2.18C121.68,178.22,122.45,177.66,122.45,176.16z"/>
	<path class="st0" d="M128.03,170.56h2.21c2.53,0,3.67,1.31,3.67,4.13c0,2.73-1.1,4.28-3.68,4.28h-2.19V170.56z M128.99,178.12h1.22
		c1.85,0,2.71-0.91,2.71-3.32c0-2.51-0.98-3.38-2.77-3.38h-1.16V178.12z"/>
	<path class="st0" d="M138.29,170.56h0.96v8.41h-0.96V170.56z"/>
	<path class="st0" d="M146.85,179.09c-2,0-3.21-1.19-3.21-4.28c0-3.11,1.28-4.37,3.31-4.37c1.99,0,3.21,1.19,3.21,4.28
		C150.16,177.83,148.86,179.09,146.85,179.09z M146.91,178.22c1.39,0,2.27-0.82,2.27-3.42c0-2.63-0.9-3.5-2.3-3.5
		c-1.37,0-2.25,0.8-2.25,3.42C144.62,177.35,145.52,178.22,146.91,178.22z"/>
</g>
<g id="hand">
	<g>
		<path class="st0" d="M106.35,28.95c0.82,2.07,1.92,4.06,3.14,5.93c1.09,1.65,2.32,3.23,3.74,4.61c1.67,1.62,3.66,2.81,5.66,3.98
			c4.27,2.48,8.8,4.49,13.55,5.87c4.49,1.3,9.21,2.81,13.11,5.47c1.22,0.83,2.14,1.96,3.15,3.02c1.3,1.38,2.62,2.74,3.97,4.06
			c1.38,1.36,2.79,2.7,4.29,3.94c1.19,0.98,2.6,1.72,3.7,2.8c2.74,2.72,4.16,6.36,6.4,9.44c0.93,1.28,6.71,6.97,3.35,8
			c-1.89,0.58-4.16-1.15-5.5-2.29c-1.47-1.24-2.54-2.79-3.74-4.27c-1.27-1.55-2.53-3.24-4.02-4.59c-1.06-0.96-2.33-1.72-3.51-2.53
			c-0.51-0.34-0.99,0.22-0.92,0.71c-0.04-0.3,0.01,0.16,0,0.25c-0.03,0.3-0.05,0.58-0.17,0.86c-0.5,1.21-1.92,1.37-3.07,1.31
			c-3.36-0.17-6.24-1.43-9.12-3.06c-4.1-2.32-8.35-3.94-12.83-5.4c-2.42-0.79-4.69-1.41-7.26-1.43c-3.69-0.03-7.35,0.02-10.9-1.17
			c-3.49-1.16-6.87-3.36-9.04-6.36c-1.56-2.17-2.38-4.69-3.22-7.2c-0.55-1.65-1.13-3.29-1.9-4.84c-0.94-1.89-2.19-3.53-3.49-5.19
			c-1.93-2.47-3.73-5.06-5.41-7.71c-0.43-0.68-1.51-0.05-1.08,0.63c1.51,2.39,3.13,4.72,4.84,6.97c1.26,1.67,2.61,3.26,3.62,5.1
			c0.91,1.65,1.55,3.41,2.15,5.19c0.88,2.62,1.72,5.27,3.32,7.56c2.07,2.95,5.12,5.11,8.41,6.51c3.57,1.5,7.38,1.77,11.21,1.77
			c1.48,0,3.02-0.08,4.47,0.23c1.28,0.27,2.54,0.7,3.79,1.1c2.69,0.87,5.37,1.81,7.99,2.87c2.18,0.88,4.16,2.2,6.23,3.31
			c1.55,0.83,3.18,1.51,4.9,1.9c1.74,0.39,3.86,0.82,5.59,0.2c1.57-0.56,2.41-2.11,2.18-3.74c-0.31,0.24-0.61,0.47-0.92,0.71
			c1.09,0.74,2.27,1.45,3.26,2.33c1.4,1.25,2.59,2.84,3.78,4.29c2.28,2.78,4.4,5.77,7.96,7c1.37,0.47,3.08,0.5,4.12-0.66
			c0.98-1.09,0.56-2.56-0.03-3.73c-0.85-1.67-2.17-3.08-3.35-4.51c-1.05-1.27-1.85-2.72-2.69-4.14c-1.06-1.78-2.15-3.55-3.46-5.15
			c-1.11-1.36-2.42-2.2-3.8-3.22c-3.23-2.4-6.05-5.43-8.81-8.34c-1-1.06-1.94-2.23-3.1-3.12c-1.7-1.32-3.7-2.27-5.67-3.13
			c-4.58-1.99-9.46-3.05-14.07-4.94c-2.99-1.22-5.85-2.72-8.62-4.39c-2.39-1.43-4.45-3.02-6.22-5.18c-1.93-2.36-3.61-5.16-4.73-7.98
			C107.26,27.88,106.05,28.2,106.35,28.95L106.35,28.95z"/>
	</g>
	<g>
		<path class="st0" d="M128.59,55.24c3.38,2.27,6.76,4.54,10.22,6.69c2.82,1.75,5.34,3.79,7.89,5.91c0.96,0.8,1.94,1.47,3.04,2.07
			c1.42,0.78,2.5,1.57,2.96,3.21c0.21,0.77,1.42,0.45,1.21-0.33c-0.83-2.98-3.42-3.55-5.61-5.25c-2.76-2.14-5.28-4.48-8.26-6.32
			c-3.66-2.25-7.24-4.65-10.81-7.05C128.55,53.71,127.93,54.79,128.59,55.24L128.59,55.24z"/>
	</g>
	<g>
		<path class="st0" d="M141.26,74.06c0.14,3.58-0.22,7.08-0.74,10.61c-0.04,0.26-0.05,0.54-0.12,0.8c0.07-0.29-0.02,0.01-0.06,0.11
			c-0.13,0.3-0.27,0.58-0.4,0.88c-0.74,1.71-1.36,3.49-1.65,5.33c-0.37,2.34-0.25,7.23,3.19,7.2c3.08-0.03,4.56-4.61,5.5-6.85
			c1.02-2.45,2.02-4.96,2.48-7.58c0.48-2.77,0.52-5.59,0.42-8.4c-0.03-0.8-1.28-0.81-1.25,0c0.17,4.53-0.24,8.77-1.83,13.04
			c-0.7,1.87-1.44,3.74-2.37,5.5c-0.56,1.06-1.31,2.68-2.61,2.99c-1.3,0.3-2-1.03-2.26-2.1c-0.46-1.94-0.07-4.02,0.5-5.89
			c0.55-1.8,1.47-3.35,1.74-5.21c0.5-3.48,0.84-6.92,0.71-10.43C142.48,73.25,141.23,73.25,141.26,74.06L141.26,74.06z"/>
	</g>
	<g>
		<path class="st0" d="M133.55,70.43c0.07,1.03,0.03,2.07-0.03,3.1c-0.13,2.21-0.13,4.91-1.46,6.79c-1.02,1.45-2.63,2.41-3.85,3.67
			c-1.48,1.53-2.63,3.47-3.25,5.5c-0.55,1.81-0.31,5.7,2.54,5.3c1.61-0.23,2.92-2.06,4.01-3.1c1.45-1.39,3-2.66,4.42-4.09
			c1.47-1.48,2.93-2.99,4.27-4.6c1.63-1.95,2.34-4.31,2.34-6.82c0-0.8-1.25-0.81-1.25,0c0,2.28-0.64,4.36-2.12,6.12
			c-1.03,1.22-2.14,2.39-3.26,3.54c-1.23,1.27-2.48,2.52-3.82,3.67c-1.36,1.17-2.55,2.69-4.04,3.7c-1.01,0.69-1.88,0-2.12-1.09
			c-0.36-1.69,0.66-3.64,1.48-5.04c0.96-1.63,2.3-2.83,3.71-4.05c1.07-0.92,2.06-1.9,2.63-3.22c0.82-1.9,0.89-4.24,1.01-6.29
			c0.06-1.03,0.1-2.07,0.03-3.1C134.75,69.63,133.49,69.63,133.55,70.43L133.55,70.43z"/>
	</g>
	<g>
		<path class="st0" d="M122.8,67.23c-0.17,3.47-1.02,7.36-3.22,10.12c-2.25,2.82-5.1,5.05-4.81,8.99c0.08,1.14,0.29,2.67,1.45,3.22
			c1.14,0.55,2.52-0.21,3.47-0.81c3-1.88,5.44-4.83,7.31-7.79c1.37-2.17,2.7-4.47,3.69-6.83c0.66-1.57,1.15-3.26,0.73-4.96
			c-0.19-0.78-1.4-0.45-1.21,0.33c0.34,1.38-0.11,2.8-0.64,4.07c-0.78,1.88-1.83,3.65-2.85,5.41c-1.8,3.1-4.07,6.1-6.99,8.23
			c-0.66,0.48-2.04,1.59-2.91,1.26c-1.1-0.42-0.94-3.06-0.77-3.93c0.59-3.09,3.79-5.13,5.41-7.67c1.74-2.73,2.42-6.42,2.58-9.63
			C124.09,66.43,122.84,66.43,122.8,67.23L122.8,67.23z"/>
	</g>
</g>
</svg>
