<?xml version="1.0" encoding="utf-8"?>
<!-- Generator: Adobe Illustrator 23.0.6, SVG Export Plug-In . SVG Version: 6.00 Build 0)  -->
<svg version="1.1" id="Layer_1" xmlns="http://www.w3.org/2000/svg" xmlns:xlink="http://www.w3.org/1999/xlink" x="0px" y="0px"
	 viewBox="0 0 533 416" style="enable-background:new 0 0 533 416;" xml:space="preserve">
<style type="text/css">
	.st0{fill:#FCD95A;}
	.st1{fill:none;stroke:#231F20;stroke-miterlimit:10;}
	.st2{fill:#231F20;}
</style>
<g id="Coins_x5F_2_1_">
	<circle class="st0" cx="327.6" cy="243.7" r="62.3"/>
	<circle class="st1" cx="348.4" cy="254.6" r="62.3"/>
</g>
<g id="PENNYDROP-KOHINOOR">
	<path class="st2" d="M65.8,30.5c0,20-11.3,33.5-36.7,33.5H15.5v39.3H0.9V0.8h31C52.4,0.8,65.8,9.3,65.8,30.5z M15.5,13.7v37.7h13.3
		c16.4,0,21.8-7.2,21.8-19c0-13.3-7.3-18.7-21.6-18.7H15.5z"/>
	<path class="st2" d="M108.4,103.3V0.8h56.2v12.7H123V45h36.3v12.7H123v32.9h43.4v12.7H108.4z"/>
	<path class="st2" d="M224.6,18.8c0.4,4.5,0.7,21.9,0.7,29.7v54.8h-14.2V0.8h19.5l30.6,57.8c2.2,4.4,11,21.1,12.6,25.5h0.9
		c-0.4-6.3-0.4-26-0.4-30.9V0.8H288v102.5h-19l-31.3-58.9c-2.2-4.4-10.4-20.6-12.3-25.6H224.6z"/>
	<path class="st2" d="M351.1,18.8c0.4,4.5,0.7,21.9,0.7,29.7v54.8h-14.2V0.8h19.5l30.6,57.8c2.2,4.4,11,21.1,12.6,25.5h0.9
		c-0.4-6.3-0.4-26-0.4-30.9V0.8h13.9v102.5h-19l-31.3-58.9c-2.2-4.4-10.4-20.6-12.3-25.6H351.1z"/>
	<path class="st2" d="M531.6,0.8l-34.2,66.7v35.8h-14.6V67.5L448.6,0.8h16.7l24.9,51.6h0.6l25-51.6H531.6z"/>
	<path class="st2" d="M0.9,150.9h35.7c39.9,0,58,20.1,58,63c0,39.6-16.1,66.6-58,66.6H0.9V150.9z M19.4,264.4h16.5
		c27.9,0,39.6-15,39.6-48.4c0-36.6-14.8-49-40.3-49H19.4V264.4z"/>
	<path class="st2" d="M176.7,150.9c27.4,0,43.6,10.7,43.6,37c0,21.6-13.3,33.5-28.7,35.5v0.7c5.5,2.6,10.2,7,16.1,17.4l22.7,39
		h-22.4l-22.9-41.6c-4.1-7.4-9.2-10.5-17.7-10.5h-7.6v52.1h-18.5V150.9H176.7z M159.9,212.9h15c17,0,26.4-7,26.4-23.3
		c0-16.3-9.6-22.6-27.2-22.6h-14.2V212.9z"/>
	<path class="st2" d="M530.6,188.5c0,25.3-14.2,42.3-46.4,42.3h-17.2v49.7h-18.5V150.9h39.2C513.6,150.9,530.6,161.7,530.6,188.5z
		 M467.1,167.2v47.7h16.8c20.7,0,27.5-9.1,27.5-24c0-16.8-9.2-23.7-27.4-23.7H467.1z"/>
</g>
<g id="STUDIO-GILLSANS">
	<path d="M18,390.2l-6.2-3.8c-3.9-2.4-6.7-4.7-8.3-7c-1.7-2.3-2.5-5-2.5-8c0-4.5,1.6-8.2,4.7-11c3.1-2.8,7.2-4.2,12.2-4.2
		c4.8,0,9.2,1.3,13.1,4v9.3c-4.1-4-8.6-5.9-13.3-5.9c-2.7,0-4.9,0.6-6.6,1.9c-1.7,1.2-2.6,2.8-2.6,4.8c0,1.7,0.6,3.3,1.9,4.8
		c1.3,1.5,3.3,3.1,6.1,4.7l6.3,3.7c7,4.2,10.5,9.5,10.5,15.9c0,4.6-1.5,8.3-4.6,11.2s-7.1,4.3-12,4.3c-5.7,0-10.8-1.7-15.4-5.2
		v-10.4c4.4,5.6,9.5,8.4,15.4,8.4c2.6,0,4.7-0.7,6.4-2.1c1.7-1.4,2.6-3.2,2.6-5.4C25.6,396.7,23.1,393.4,18,390.2z"/>
	<path d="M84.4,356.9h47.8v7.3h-19.9v50H104v-50H84.4V356.9z"/>
	<path d="M226.7,357h8.2v32.5c0,4.4-0.3,7.7-1,10c-0.6,2.2-1.4,4.1-2.4,5.6s-2.1,2.8-3.5,4c-4.5,3.9-10.5,5.9-17.8,5.9
		c-7.5,0-13.4-1.9-17.9-5.8c-1.4-1.2-2.5-2.5-3.5-4s-1.7-3.3-2.3-5.5s-0.9-5.5-0.9-10.2V357h8.2v32.5c0,5.4,0.6,9.1,1.8,11.2
		s3.1,3.8,5.6,5.1c2.5,1.3,5.5,1.9,8.9,1.9c4.9,0,8.8-1.3,11.9-3.8c1.6-1.4,2.8-3,3.5-4.8c0.7-1.9,1.1-5,1.1-9.5V357z"/>
	<path d="M293.3,414.1V357h19.3c7.8,0,13.9,1.2,18.5,3.5c4.5,2.3,8.1,5.8,10.8,10.3c2.7,4.5,4,9.5,4,14.8c0,3.8-0.7,7.5-2.2,11
		c-1.5,3.5-3.6,6.6-6.3,9.2c-2.8,2.7-6,4.8-9.7,6.2c-2.2,0.8-4.1,1.4-5.9,1.7c-1.8,0.3-5.2,0.4-10.3,0.4H293.3z M311.7,364.3h-10.2
		v42.5H312c4.1,0,7.3-0.3,9.5-0.8c2.3-0.6,4.2-1.3,5.7-2.1c1.5-0.9,2.9-1.9,4.2-3.2c4-4.1,6.1-9.3,6.1-15.5c0-6.1-2.1-11.2-6.2-15
		c-1.5-1.4-3.3-2.6-5.3-3.6c-2-0.9-3.9-1.5-5.6-1.8C318.5,364.4,315.7,364.3,311.7,364.3z"/>
	<path d="M403.2,357h8.2v57.2h-8.2V357z"/>
	<path d="M499.1,356.2c8.8,0,16.2,2.8,22.1,8.4c5.9,5.6,8.8,12.6,8.8,21s-3,15.4-8.9,20.9c-5.9,5.5-13.4,8.3-22.4,8.3
		c-8.6,0-15.8-2.8-21.5-8.3c-5.7-5.5-8.6-12.5-8.6-20.8c0-8.5,2.9-15.6,8.7-21.2C482.9,359,490.3,356.2,499.1,356.2z M499.4,364
		c-6.5,0-11.9,2-16.1,6.1c-4.2,4.1-6.3,9.3-6.3,15.7c0,6.2,2.1,11.3,6.3,15.4c4.2,4.1,9.5,6.1,15.9,6.1c6.4,0,11.7-2.1,16-6.3
		c4.3-4.2,6.4-9.4,6.4-15.6c0-6.1-2.1-11.2-6.4-15.3C510.9,366,505.6,364,499.4,364z"/>
</g>
</svg>
